<?xml version="1.0" standalone="no"?>
<!DOCTYPE svg PUBLIC "-//W3C//DTD SVG 20010904//EN"
 "http://www.w3.org/TR/2001/REC-SVG-20010904/DTD/svg10.dtd">
<svg version="1.0" xmlns="http://www.w3.org/2000/svg"
 width="312.000000pt" height="312.000000pt" viewBox="0 0 312.000000 312.000000"
 preserveAspectRatio="xMidYMid meet">
<metadata>
Created by potrace 1.14, written by Peter Selinger 2001-2017
</metadata>
<g transform="translate(0.000000,312.000000) scale(0.100000,-0.100000)"
fill="#000000" stroke="none">
<path d="M1220 2173 l0 -268 -108 -54 c-59 -30 -109 -58 -112 -62 -3 -4 -4
-126 -4 -272 1 -190 -2 -267 -10 -269 -6 -2 -56 -4 -111 -3 l-100 0 -3 106 -3
106 39 17 c47 21 82 77 82 130 0 152 -211 196 -272 57 -34 -74 2 -166 74 -190
l33 -11 0 -99 c0 -55 -4 -103 -9 -108 -4 -4 -60 -8 -124 -9 -64 -1 -122 -2
-129 -3 -11 -1 -12 -25 -1 -36 4 -5 1681 -9 2076 -5 37 0 42 3 42 23 0 22 -2
22 -132 22 l-133 0 0 107 -1 106 38 17 c73 32 106 142 60 204 -67 91 -177 90
-245 -1 -46 -61 -12 -171 62 -204 l37 -16 2 -104 c1 -92 -1 -104 -16 -105 -9
-1 -61 -2 -114 -3 l-98 -1 0 390 0 390 -410 208 -410 207 0 -267z m95 167 c20
-11 180 -92 356 -181 175 -88 319 -165 320 -172 2 -43 -1 -730 -3 -732 -6 -6
-49 -7 -223 -6 l-180 1 1 413 c0 226 0 415 -2 418 -2 3 -73 -29 -159 -72
l-155 -79 0 215 c0 118 2 215 5 215 2 0 21 -9 40 -20z m225 -710 l0 -380 -135
0 -135 0 0 315 0 314 128 65 c70 35 130 65 135 65 4 1 7 -170 7 -379z m-320
-80 l0 -301 -87 3 -88 3 0 254 0 254 85 43 c47 24 86 44 88 44 1 0 2 -135 2
-300z m-406 121 c44 -46 39 -108 -12 -148 -26 -21 -32 -15 -32 31 0 70 -46 73
-47 3 -1 -53 -10 -57 -44 -19 -40 44 -40 93 0 133 41 40 96 41 135 0z m1532
11 c52 -42 55 -114 7 -152 -37 -29 -43 -25 -40 21 3 31 -1 42 -15 50 -15 8
-20 5 -27 -13 -5 -13 -6 -35 -4 -50 5 -33 -5 -35 -40 -8 -69 55 -26 170 63
170 19 0 45 -8 56 -18z"/>
<path d="M100 1079 c-122 -49 -131 -257 -13 -313 44 -21 119 -20 163 2 35 17
80 73 80 98 0 20 -103 19 -120 -1 -7 -8 -27 -15 -45 -15 -24 0 -34 6 -43 25
-36 78 26 149 85 97 27 -22 116 -24 121 -1 4 23 -39 80 -78 100 -38 21 -109
24 -150 8z"/>
<path d="M370 920 l0 -170 53 0 52 0 0 170 0 170 -52 0 -53 0 0 -170z"/>
<path d="M507 1082 c-2 -4 -4 -23 -3 -42 1 -36 2 -37 61 -39 l30 -1 -1 -125
-2 -125 54 0 54 0 0 125 c0 137 -4 128 62 127 24 0 27 3 30 38 3 39 4 37 62
-76 53 -101 59 -120 57 -164 l-2 -50 55 0 56 0 0 50 c0 42 10 70 57 163 32 61
59 115 61 120 2 4 -23 7 -57 7 l-60 0 -27 -60 -27 -60 -28 60 -28 59 -200 1
c-110 0 -202 -4 -204 -8z"/>
<path d="M1249 1088 c-5 -14 -3 -321 2 -330 4 -7 42 -9 108 -6 81 3 106 8 128
24 64 48 87 111 68 187 -23 91 -79 123 -216 126 -49 1 -89 1 -90 -1z m184
-116 c39 -34 13 -117 -38 -122 -45 -5 -46 -3 -41 73 2 39 5 73 5 73 5 6 60
-12 74 -24z"/>
<path d="M1599 1078 c0 -7 0 -83 -1 -168 l0 -155 111 -3 c61 -1 112 1 112 5 6
35 3 73 -5 76 -6 2 -32 3 -58 2 -37 -1 -47 2 -51 16 -7 25 0 29 55 29 l48 0 0
40 c0 43 2 42 -68 42 -18 0 -35 5 -38 10 -12 18 14 30 65 30 28 -1 52 3 52 9
1 5 2 20 2 34 0 14 -1 30 -2 35 -2 16 -221 13 -222 -2z"/>
<path d="M1867 1083 c-3 -5 -5 -81 -5 -170 l1 -163 102 0 103 0 4 35 c2 20 2
38 -1 40 -2 3 -26 5 -53 5 l-48 0 0 130 0 130 -49 0 c-28 0 -52 -3 -54 -7z"/>
<path d="M2107 1083 c-3 -5 -4 -60 -3 -123 2 -91 6 -122 20 -146 26 -44 68
-66 126 -66 59 1 101 21 131 63 20 28 22 44 23 153 l1 121 -54 0 -53 0 -2
-105 c0 -58 -5 -111 -9 -117 -10 -16 -49 -17 -65 -1 -8 8 -12 49 -12 120 l0
108 -49 0 c-28 0 -52 -3 -54 -7z"/>
<path d="M2430 1085 c0 -3 25 -41 55 -84 l55 -78 -55 -84 -54 -84 57 -3 c60
-3 57 -5 102 59 16 21 16 21 43 -20 l27 -41 66 0 66 0 -24 33 c-13 17 -40 55
-60 82 l-37 51 54 84 54 85 -41 3 c-63 5 -87 -5 -105 -43 -9 -19 -20 -35 -24
-35 -3 0 -18 18 -33 40 -26 39 -27 40 -86 40 -33 0 -60 -2 -60 -5z"/>
<path d="M2810 920 l0 -170 115 0 114 0 -2 43 -3 42 -55 0 c-48 0 -54 2 -57
23 -3 20 0 22 47 22 53 0 60 8 53 60 -3 23 -7 25 -48 23 -35 -2 -46 1 -54 17
-9 18 -7 20 17 21 103 3 97 0 99 45 l3 42 -115 1 -114 1 0 -170z"/>
</g>
</svg>
